<?xml version="1.0" encoding="iso-8859-1"?>
<!-- Generator: Adobe Illustrator 16.0.0, SVG Export Plug-In . SVG Version: 6.00 Build 0)  -->
<!DOCTYPE svg PUBLIC "-//W3C//DTD SVG 1.1//EN" "http://www.w3.org/Graphics/SVG/1.1/DTD/svg11.dtd">
<svg version="1.1" xmlns="http://www.w3.org/2000/svg" xmlns:xlink="http://www.w3.org/1999/xlink" x="0px" y="0px" width="512px"
	 height="512px" viewBox="0 0 512 512" style="enable-background:new 0 0 512 512;" xml:space="preserve">
<g id="_x31_026_x2C__Cloud_x2C__data_x2C__storage_x2C__cloudy">
	<path d="M486,314.823c0-49.043-37.261-89.519-84.872-94.427C405.513,156.048,354.356,101,289.846,101
		c-40.524,0-76.14,21.734-95.666,54.378c-7.358-2.274-14.992-3.423-22.795-3.423c-40.771,0-74.309,31.67-77.452,71.776
		C54.126,235.455,26,272.552,26,314.823c0,44.471,28.293,84.76,67.275,95.799C94.162,410.873,95.079,411,96,411
		c312.381-0.002,299.969,0.005,300.318-0.005C446.607,409.395,486,367.15,486,314.823z M395.836,391H97.442
		C67.555,381.822,46,350.03,46,314.823c0-35.517,25.119-66.399,59.726-73.432c4.749-0.965,8.123-5.196,8.006-10.041
		c-1.079-31.752,24.788-59.396,57.653-59.396c8.104,0,15.96,1.669,23.351,4.961c4.907,2.184,10.663,0.105,13.038-4.713
		C223.345,140.62,254.794,121,289.846,121c56.028,0,99.74,50.618,90.239,107.279c-1.022,6.1,3.687,11.654,9.862,11.654
		c0.427,0,1.246-0.037,1.438-0.037c41.143,0,74.615,33.612,74.615,74.927C466,356.233,435.194,389.664,395.836,391z"/>
</g>
<g id="Layer_1">
</g>
</svg>
